<?xml version="1.0" encoding="utf-8"?>
<!-- Generator: Adobe Illustrator 19.0.1, SVG Export Plug-In . SVG Version: 6.00 Build 0)  -->
<!DOCTYPE svg PUBLIC "-//W3C//DTD SVG 1.1//EN" "http://www.w3.org/Graphics/SVG/1.1/DTD/svg11.dtd">
<svg width="326.2125305175781px" height="105.46765441894532px" xmlns="http://www.w3.org/2000/svg" viewBox="86.89373474121095 22.266172790527342 326.2125305175781 105.46765441894532" style="background: rgba(40, 41, 47, 0);" preserveAspectRatio="xMidYMid"><defs><linearGradient id="editing-glowing-gradient" x1="0.8146601955249185" x2="0.18533980447508147" y1="0.8885729807284856" y2="0.11142701927151444"><stop offset="0" stop-color="#ffffff"></stop><stop offset="1" stop-color="#ffffff"></stop></linearGradient><filter id="editing-glowing" x="-100%" y="-100%" width="300%" height="300%"><feGaussianBlur in="SourceGraphic" result="blur" stdDeviation="10"></feGaussianBlur><feMerge><feMergeNode in="blur"></feMergeNode><feMergeNode in="SourceGraphic"></feMergeNode></feMerge></filter></defs><g filter="url(#editing-glowing)"><g transform="translate(135.92499923706055, 93.36000061035156)"><path d="M31.88-10.77L31.88-10.77L22.95-10.91L22.44-0.22L22.44-0.22Q11.57 0.22 8.76 0.22L8.76 0.22L8.76 0.22Q5.96 0.22 5.59 0.12L5.59 0.12L5.59 0.12Q5.66-0.76 5.71-2.49L5.71-2.49L5.79-6.59L5.79-6.59Q5.91-10.01 6.47-35.11L6.47-35.11L6.47-35.11Q19.19-35.84 32.50-35.84L32.50-35.84L32.50-35.84Q41.75-35.84 46.73-33.25L46.73-33.25L46.73-33.25Q53.17-29.88 53.15-22.92L53.15-22.92L53.15-22.92Q53.15-10.77 31.88-10.77ZM35.72-23.10L35.72-23.10L35.72-23.10Q35.72-25.37 34.14-25.83L34.14-25.83L34.14-25.83Q32.57-26.29 29.82-26.29L29.82-26.29L29.82-26.29Q27.08-26.29 23.58-25.93L23.58-25.93L23.58-25.93Q23.24-22.09 23.24-19.26L23.24-19.26L23.24-19.26Q23.63-19.12 28.37-19.12L28.37-19.12L28.37-19.12Q35.72-19.12 35.72-23.10ZM71.95-15.33L80.76-15.28L80.76-15.28Q80.74-17.58 79.70-18.53L79.70-18.53L79.70-18.53Q78.66-19.48 76.67-19.48L76.67-19.48L76.67-19.48Q74.68-19.48 73.46-18.30L73.46-18.30L73.46-18.30Q72.24-17.11 71.95-15.33L71.95-15.33ZM90.33-2.00L90.33-2.00Q88.82-0.85 84.94 0.01L84.94 0.01L84.94 0.01Q81.05 0.88 77.40 0.88L77.40 0.88L77.40 0.88Q73.75 0.88 71.22 0.54L71.22 0.54L71.22 0.54Q68.68 0.20 66.19-0.70L66.19-0.70L66.19-0.70Q63.70-1.59 61.93-2.97L61.93-2.97L61.93-2.97Q60.16-4.35 59.06-6.56L59.06-6.56L59.06-6.56Q57.96-8.76 57.96-11.85L57.96-11.85L57.96-11.85Q57.96-14.94 59.08-17.53L59.08-17.53L59.08-17.53Q60.21-20.12 61.99-21.70L61.99-21.70L61.99-21.70Q66.94-26.12 76.34-26.12L76.34-26.12L76.34-26.12Q80.81-26.12 84.84-24.41L84.84-24.41L84.84-24.41Q88.87-22.66 90.58-19.14L90.58-19.14L90.58-19.14Q91.55-17.16 91.55-14.77L91.55-14.77L91.26-10.74L71.46-10.84L71.46-10.84Q72.05-8.62 74.30-7.35L74.30-7.35L74.30-7.35Q76.56-6.08 80.47-6.08L80.47-6.08L80.47-6.08Q84.38-6.08 89.48-8.20L89.48-8.20L90.80-8.20L90.33-2.00ZM129.22-1.07L129.22-1.07L129.22-1.07Q126.86-0.15 123.35 0.37L123.35 0.37L123.35 0.37Q119.85 0.88 116.78 0.88L116.78 0.88L116.78 0.88Q113.72 0.88 111.01 0.17L111.01 0.17L111.01 0.17Q102.39-2.03 102.39-10.23L102.39-10.23L102.39-10.23Q102.39-10.38 102.39-10.50L102.39-10.50L102.39-10.79L102.39-10.79Q102.47-11.50 102.54-14.71L102.54-14.71L102.54-14.71Q102.61-17.92 102.66-18.24L102.66-18.24L100.17-18.24L100.17-18.24Q98.05-18.24 97.29-18.46L97.29-18.46L98.80-24.05L103.25-24.05L103.25-24.05Q103.59-26.61 103.77-29.83L103.77-29.83L103.77-29.83Q103.96-33.06 104.05-33.89L104.05-33.89L104.05-33.89Q113.06-34.72 118.31-34.72L118.31-34.72L118.31-34.72Q118.46-34.72 118.60-34.72L118.60-34.72L118.60-34.72Q118.63-34.33 118.63-33.94L118.63-33.94L118.16-23.97L127.66-23.97L127.66-23.97Q128.81-23.97 129.81-23.68L129.81-23.68L128.52-18.48L128.52-18.48Q127.76-18.24 125.88-18.24L125.88-18.24L117.70-18.24L117.46-11.13L117.46-11.13Q117.46-8.79 118.62-7.86L118.62-7.86L118.62-7.86Q119.78-6.93 122.01-6.93L122.01-6.93L122.01-6.93Q124.24-6.93 128.34-8.11L128.34-8.11L128.34-8.11Q129.15-8.35 129.27-8.37L129.27-8.37L129.27-8.37Q129.35-7.67 129.35-5.00L129.35-5.00L129.35-5.00Q129.35-2.34 129.22-1.07ZM149.24-0.29L138.67 0.22L136.25 0.27L136.25 0.27Q136.11-0.85 136.11-1.37L136.11-1.37L136.11-1.37Q136.11-1.37 137.01-23.41L137.01-23.41L143.77-24.85L146.61-19.95L146.61-19.95Q151.25-25.93 155.91-25.93L155.91-25.93L155.91-25.93Q157.84-25.93 159.90-25.15L159.90-25.15L159.90-25.15Q161.96-24.37 162.62-23.49L162.62-23.49L160.06-16.41L160.06-16.41Q157.35-17.53 154.76-17.53L154.76-17.53L154.76-17.53Q152.17-17.53 150.51-16.06L150.51-16.06L150.51-16.06Q150.42-15.97 150.32-15.92L150.32-15.92L150.27-15.84L149.24-0.29ZM180.20-15.33L189.01-15.28L189.01-15.28Q188.99-17.58 187.95-18.53L187.95-18.53L187.95-18.53Q186.91-19.48 184.92-19.48L184.92-19.48L184.92-19.48Q182.93-19.48 181.71-18.30L181.71-18.30L181.71-18.30Q180.49-17.11 180.20-15.33L180.20-15.33ZM198.58-2.00L198.58-2.00Q197.07-0.85 193.19 0.01L193.19 0.01L193.19 0.01Q189.31 0.88 185.66 0.88L185.66 0.88L185.66 0.88Q182.01 0.88 179.47 0.54L179.47 0.54L179.47 0.54Q176.93 0.20 174.44-0.70L174.44-0.70L174.44-0.70Q171.95-1.59 170.18-2.97L170.18-2.97L170.18-2.97Q168.41-4.35 167.31-6.56L167.31-6.56L167.31-6.56Q166.21-8.76 166.21-11.85L166.21-11.85L166.21-11.85Q166.21-14.94 167.33-17.53L167.33-17.53L167.33-17.53Q168.46-20.12 170.24-21.70L170.24-21.70L170.24-21.70Q175.20-26.12 184.59-26.12L184.59-26.12L184.59-26.12Q189.06-26.12 193.09-24.41L193.09-24.41L193.09-24.41Q197.12-22.66 198.83-19.14L198.83-19.14L198.83-19.14Q199.80-17.16 199.80-14.77L199.80-14.77L199.51-10.74L179.71-10.84L179.71-10.84Q180.30-8.62 182.56-7.35L182.56-7.35L182.56-7.35Q184.81-6.08 188.72-6.08L188.72-6.08L188.72-6.08Q192.63-6.08 197.73-8.20L197.73-8.20L199.05-8.20L198.58-2.00ZM208.13-35.11L208.13-35.11L222.56-35.79L222.56-35.79Q222.17-27.64 221.77-16.00L221.77-16.00L221.77-16.00Q221.36-4.37 221.19 0.02L221.19 0.02L206.93 0.42L207.67-22.66L207.67-22.66Q208.13-33.72 208.13-35.11Z" fill="url(#editing-glowing-gradient)"></path></g></g><style>text {
  font-size: 64px;
  font-family: Arial Black;
  dominant-baseline: central;
  text-anchor: middle;
}</style></svg>
